<svg xmlns="http://www.w3.org/2000/svg" xmlns:xlink="http://www.w3.org/1999/xlink" viewBox="0,0,256,256" width="48px" height="48px" fill-rule="nonzero"><g fill="#800080" fill-rule="nonzero" stroke="none" stroke-width="1" stroke-linecap="butt" stroke-linejoin="miter" stroke-miterlimit="10" stroke-dasharray="" stroke-dashoffset="0" font-family="none" font-weight="none" font-size="none" text-anchor="none" style="mix-blend-mode: normal"><g transform="scale(5.33333,5.33333)"><path d="M38,6h-28c-0.276,0 -0.546,0.028 -0.806,0.081c-0.521,0.107 -1.005,0.314 -1.43,0.602c-0.213,0.144 -0.412,0.308 -0.592,0.489c-0.362,0.362 -0.655,0.792 -0.858,1.271c-0.202,0.479 -0.314,1.005 -0.314,1.557v28c0,0.552 0.112,1.078 0.314,1.557c0.202,0.479 0.495,0.91 0.857,1.271c0.181,0.181 0.379,0.345 0.592,0.488c0.426,0.288 0.909,0.495 1.43,0.602c0.261,0.054 0.531,0.082 0.807,0.082h28c2.209,0 4,-1.791 4,-4v-28c0,-2.209 -1.791,-4 -4,-4zM25.906,24.781h-3.994v11.436h-3.164v-11.436h-3.975v-2.568h11.133zM36.253,34.249c-0.296,0.531 -0.698,0.96 -1.206,1.289c-0.508,0.329 -1.099,0.565 -1.772,0.708c-0.673,0.143 -1.385,0.215 -2.134,0.215c-0.768,0 -1.499,-0.065 -2.192,-0.195c-0.693,-0.13 -1.294,-0.326 -1.802,-0.586v-3.125c0.566,0.475 1.182,0.832 1.846,1.069c0.664,0.237 1.334,0.356 2.012,0.356c0.397,0 0.744,-0.036 1.04,-0.107c0.296,-0.071 0.543,-0.171 0.742,-0.298c0.199,-0.127 0.347,-0.277 0.444,-0.449c0.097,-0.172 0.146,-0.36 0.146,-0.562c0,-0.273 -0.078,-0.518 -0.234,-0.732c-0.156,-0.214 -0.37,-0.414 -0.64,-0.596c-0.27,-0.182 -0.591,-0.358 -0.962,-0.527c-0.371,-0.169 -0.771,-0.342 -1.201,-0.518c-1.094,-0.456 -1.909,-1.012 -2.446,-1.67c-0.537,-0.658 -0.806,-1.452 -0.806,-2.383c0,-0.729 0.146,-1.356 0.439,-1.88c0.293,-0.524 0.692,-0.956 1.196,-1.294c0.504,-0.338 1.089,-0.587 1.753,-0.747c0.664,-0.16 1.367,-0.239 2.109,-0.239c0.729,0 1.375,0.044 1.938,0.132c0.563,0.088 1.083,0.223 1.558,0.405v2.92c-0.234,-0.163 -0.49,-0.306 -0.767,-0.43c-0.277,-0.124 -0.562,-0.226 -0.854,-0.308c-0.292,-0.082 -0.584,-0.142 -0.874,-0.181c-0.29,-0.039 -0.565,-0.059 -0.825,-0.059c-0.358,0 -0.684,0.034 -0.977,0.103c-0.293,0.069 -0.541,0.165 -0.742,0.288c-0.201,0.123 -0.358,0.272 -0.469,0.444c-0.111,0.172 -0.166,0.366 -0.166,0.581c0,0.234 0.062,0.444 0.186,0.63c0.124,0.186 0.299,0.361 0.527,0.527c0.228,0.166 0.504,0.329 0.83,0.488c0.326,0.159 0.693,0.324 1.104,0.493c0.56,0.234 1.063,0.483 1.509,0.747c0.446,0.264 0.829,0.562 1.147,0.894c0.318,0.332 0.563,0.711 0.732,1.138c0.169,0.427 0.254,0.923 0.254,1.489c0.001,0.783 -0.147,1.439 -0.443,1.97z"></path></g></g></svg>